<svg data-v-0dd9719b="" version="1.0" xmlns="http://www.w3.org/2000/svg" xmlns:xlink="http://www.w3.org/1999/xlink" width="100%" height="100%" viewBox="0 0 340.000000 250.000000" preserveAspectRatio="xMidYMid meet" color-interpolation-filters="sRGB" style="margin: auto;"> <rect data-v-0dd9719b="" x="0" y="0" width="100%" height="100%" fill="#fff" fill-opacity="1" class="background"></rect> <rect data-v-0dd9719b="" x="0" y="0" width="100%" height="100%" fill="url(#watermark)" fill-opacity="1" class="watermarklayer"></rect> <g data-v-0dd9719b="" fill="#333" class="icon-text-wrapper icon-svg-group iconsvg" transform="translate(47.285003662109375,94.9774837495284)"><g class="iconsvg-imagesvg" transform="translate(0,0)"><g><rect fill="#333" fill-opacity="0" stroke-width="2" x="0" y="0" width="60" height="60.0450337753315" class="image-rect"></rect> <svg x="0" y="0" width="60" height="60.0450337753315" filtersec="colorsb581563503" class="image-svg-svg primary" style="overflow: visible;"><svg xmlns="http://www.w3.org/2000/svg" xlink="http://www.w3.org/1999/xlink" viewBox="-0.01051612850278616 0.0012276958441361785 50.34043502807617 50.378292083740234"><defs><linearGradient id="a496a7b68-f6d1-4e35-a72f-c161c6ff8b83" y1="18.98" x2="48.96" y2="18.98" gradientUnits="userSpaceOnUse"><stop offset="0" stop-color="#2cf1ae"></stop><stop offset=".47" stop-color="#1eaafd"></stop><stop offset=".99" stop-color="#dd3ffc"></stop></linearGradient><linearGradient id="bb42a1021-358b-4db6-9e9a-4e6c724fbde0" x1="1.42" y1="31.44" x2="50.36" y2="31.44" href="#a496a7b68-f6d1-4e35-a72f-c161c6ff8b83"></linearGradient></defs><path d="M7.59 7.21A24.9 24.9 0 0 1 26.67.05 25.28 25.28 0 0 1 49 16.79H30.24c0-2.83.05-5.67 0-8.5a1.65 1.65 0 0 0-2.43-1.39 14.2 14.2 0 0 0-1.76 1.62C20.91 13.7 15.7 18.83 10.58 24a1.64 1.64 0 0 0 1 2.81c7.66.07 15.33 0 23 0Q29 32.39 23.5 38c0-2.07.06-4.16 0-6.24a1.65 1.65 0 0 0-1.84-1.48H4.93A4.84 4.84 0 0 1 0 25.79 24.78 24.78 0 0 1 7.59 7.21z" fill="url(#a496a7b68-f6d1-4e35-a72f-c161c6ff8b83)"></path><path d="M15.81 23.5c3.65-3.69 7.3-7.38 11-11 .08 2 0 4.11.06 6.16a1.69 1.69 0 0 0 1.84 1.5h16.76a4.83 4.83 0 0 1 4.85 4.48 24.79 24.79 0 0 1-4.28 14.64c.81 3.07 1.67 6.12 2.45 9.2-3.12-.66-6.17-1.62-9.26-2.4A25.18 25.18 0 0 1 1.42 33.6h18.75c0 2.83-.05 5.66 0 8.49a1.64 1.64 0 0 0 2.23 1.46 9.55 9.55 0 0 0 1.67-1.45c5.2-5.27 10.5-10.45 15.68-15.73a1.63 1.63 0 0 0-1.06-2.82c-7.61-.06-15.25.04-22.88-.05z" fill="url(#bb42a1021-358b-4db6-9e9a-4e6c724fbde0)"></path></svg></svg> <!----></g></g> <g transform="translate(67,2.196269989013672)"><g data-gra="path-name" fill-rule="" class="tp-name iconsvg-namesvg" transform="translate(0,0)"><g transform="scale(1)"><g><path d="M44.14-18.22Q41.98-15.79 41.53-10.84L41.53-10.84 40.18-11.21 40.18 4.32 32.09 4.32 32.09 3.38 23.49 3.38 23.49 4.32 15.39 4.32 15.39-11.21Q14.4-10.93 13.9-10.84L13.9-10.84Q13.77-12.29 13.28-13.81 12.78-15.34 12.01-16.65L12.01-16.65Q11.03-14.89 10.17-12.82L10.17-12.82Q8.32-14.13 3.78-17.05L3.78-17.05 0.94-18.86 5.54-25.15 6.75-24.43Q12.78-20.84 14.63-19.57L14.63-19.57Q14.26-19.35 13.59-18.77L13.59-18.77Q17.68-19.57 20.34-20.34L20.34-20.34Q19.35-21.15 18.45-21.96L18.45-21.96Q17.05-20.93 16.11-20.34L16.11-20.34Q14.67-23.76 11.65-25.52L11.65-25.52 11.03-23.94Q8.96-25.33 7.2-26.39 5.44-27.45 3.46-28.62L3.46-28.62 1.98-29.52 6.66-35.87Q11.38-33.25 15.57-30.69L15.57-30.69Q13.68-29.47 11.97-26.14L11.97-26.14Q14.4-27.86 17.01-30.46 19.62-33.07 20.84-35.23L20.84-35.23 30.73-35.23Q30.11-34.2 29.34-33.16L29.34-33.16 41.17-33.16 41.17-26.32Q38.74-22.86 35.41-20.2L35.41-20.2Q38.3-19.35 44.14-18.22L44.14-18.22ZM24.48-26.32Q26.1-24.88 27.9-23.67L27.9-23.67Q29.83-24.93 31.41-26.32L31.41-26.32 24.48-26.32ZM33.93-13.14Q30.64-14.31 28.04-15.57L28.04-15.57Q25.24-14.17 22.14-13.14L22.14-13.14 33.93-13.14ZM3.24-0.72Q5-6.75 6.3-12.2L6.3-12.2 14.22-10.3 11.52 0.04 10.48 4Q7.02 2.34 3.55 2.34L3.55 2.34Q2.75 2.34 2.38 2.38L2.38 2.38 3.24-0.72ZM32.09-6.52L23.49-6.52 23.49-3.69 32.09-3.69 32.09-6.52ZM62.28-18.13Q63.27-16.25 63.97-13.5 64.66-10.75 64.66-7.83L64.66-7.83Q64.66-3.46 62.82-1.8 60.98-0.14 57.55 0L57.55 0 56.07 0.04Q56.2-0.85 56.2-1.84L56.2-1.84Q56.2-3.38 55.96-4.97 55.71-6.57 55.26-7.83L55.26-7.83 55.26 4 47.88 4 47.88-34.7 64.39-34.7 64.39-27.49 62.28-18.13ZM55.98-7.92Q56.79-7.88 57.08-8.62 57.38-9.36 57.38-10.98L57.38-10.98Q57.38-12.6 56.81-13.99 56.25-15.39 55.26-16.92L55.26-16.92 55.26-7.96 55.98-7.92ZM79.25 3.73L79.25 2.07 73.44 2.07 73.44 3.73 65.34 3.73 65.34-34.34 87.34-34.34 87.34 3.73 79.25 3.73ZM55.26-17.23L57.28-27.49 55.26-27.49 55.26-17.23ZM73.44-20.29L79.25-20.29 79.25-26.23 73.44-26.23 73.44-20.29ZM79.25-12.33L73.44-12.33 73.44-6.03 79.25-6.03 79.25-12.33ZM125.64-7.38Q128.88-4.5 133.06-2.21L133.06-2.21Q129.87 0.58 127.53 3.69L127.53 3.69Q122.67 0.18 119.2-3.78L119.2-3.78 119.2-3.55Q119.2 0.36 117.72 2.27 116.23 4.18 112.28 4.23L112.28 4.23 104.08 4.27Q104.04 2.83 103.41 0.99L103.41 0.99Q100.98 2.16 98.91 2.86 96.84 3.55 93.64 4.41L93.64 4.41Q92.97 1.57 91.67-0.77L91.67-0.77Q93.19-0.99 96.61-1.91 100.03-2.83 103.72-4.09 107.41-5.35 109.84-6.71L109.84-6.71 109.71-7.29Q105.89-5.54 101.59-4.18 97.29-2.83 94.05-2.11L94.05-2.11Q93.73-3.96 92.56-5.89L92.56-5.89Q94.91-6.17 99.88-7.42 104.85-8.69 108.5-10.08L108.5-10.08 108.31-10.44Q105.66-9.49 102.89-8.84 100.13-8.19 98.17-7.81 96.21-7.42 95.76-7.33L95.76-7.33Q95.49-7.29 95.15-7.25 94.81-7.2 94.45-7.11L94.45-7.11Q94-9.13 92.83-11.34L92.83-11.34Q99.22-11.97 104.4-13.05L104.4-13.05 92.47-13.05 92.47-17.91 132.66-17.91 132.66-13.05 128.84-13.05 131.18-9.72Q129.06-8.69 125.64-7.38L125.64-7.38ZM116.91-10.62Q120.42-11.74 123.66-13.05L123.66-13.05 118.94-13.05Q118.03-12.69 116.06-12.06L116.06-12.06Q116.37-11.61 116.91-10.62L116.91-10.62ZM107.06-0.49Q108.99-0.49 109.6-0.92 110.2-1.35 110.3-2.48L110.3-2.48 106.38-0.49 107.06-0.49ZM92.25-28.13L92.25-33.93 101.11-33.93 101.11-35.55 109.22-35.55 109.22-33.93 115.97-33.93 115.97-35.55 124.06-35.55 124.06-33.93 132.44-33.93 132.44-28.13 124.06-28.13 124.06-27.36 115.97-27.36 115.97-28.13 109.22-28.13 109.22-27.36 101.11-27.36 101.11-28.13 92.25-28.13ZM124.38-22.68L100.71-22.68 100.71-18.72 93.42-18.72 93.42-27.09 131.58-27.09 131.58-18.72 124.38-18.72 124.38-22.68ZM101.56-21.91L123.44-21.91 123.44-18.5 101.56-18.5 101.56-21.91ZM179.37-5.71Q177.66-5.71 175.66-5.06 173.66-4.41 171.68-3.28L171.68-3.28 171.31-4.59 171.27-1.84Q171.22 0.36 170.69 1.57 170.14 2.79 168.73 3.35 167.31 3.92 164.61 3.92L164.61 3.92 159.25 3.92Q158 3.92 156.78 3.31 155.56 2.7 154.78 1.44 153.99 0.18 153.99-1.67L153.99-1.67 153.94-11.79Q152.78-8.05 150.84-2.48L150.84-2.48Q149.04-4 146.38-4.54L146.38-4.54 146.07-2.65 144.81 4.23Q141.71 3.01 139 3.01L139 3.01Q138.06 3.01 137.12 3.15L137.12 3.15Q139.23-6.75 140.31-13.99L140.31-13.99 146.97-12.78Q148.95-18.72 149.9-22.5L149.9-22.5 153.9-21.38 153.85-26.14 159.03-26.14Q155.93-28.13 153.68-29.43L153.68-29.43 158.72-35.5Q159.3-35.14 162.04-33.44L162.04-33.44Q163.49-32.49 166.28-30.71 169.06-28.93 170.73-27.77L170.73-27.77Q169.43-26.77 168.23-25.04 167.04-23.31 166.19-21.33L166.19-21.33 172.89-22.9Q174.33-19.44 176.4-13.99 178.47-8.55 179.37-5.71L179.37-5.71ZM150.84-29.97Q149.53-29.11 148.3-27.22 147.06-25.33 146.29-23.22L146.29-23.22Q142.06-26.05 136.89-29.11L136.89-29.11 141.57-35.46Q144.72-33.7 150.84-29.97L150.84-29.97ZM149.13-19.84Q147.87-19.04 146.95-17.44 146.03-15.84 144.94-13.28L144.94-13.28Q140.35-16.47 136.44-18.99L136.44-18.99 140.76-25.11Q145.26-22.41 149.13-19.84L149.13-19.84ZM164.29-12.78Q165.74-11.92 166.91-11.45 168.07-10.98 169.34-10.8L169.34-10.8Q167.31-16.61 165.24-21.11L165.24-21.11 165.87-21.24Q163.53-23.04 161.95-24.12L161.95-24.12 162.09-6.3Q162.09-5.4 162.11-4.84 162.13-4.27 162.31-4.14 162.5-4 162.94-4L162.94-4Q163.53-4 163.8-4.21 164.07-4.41 164.18-5.02 164.29-5.63 164.29-7.02L164.29-7.02 164.29-12.78Z" transform="translate(-0.940000057220459, 35.869998931884766)"></path></g> <!----> <!----> <!----> <!----> <!----> <!----> <!----></g></g> <g data-gra="path-slogan" fill-rule="" class="tp-slogan iconsvg-slogansvg" fill="#333" transform="translate(5,46.279998779296875)"><rect x="0" height="1" y="4.185000419616699" width="22.6199951171875"></rect> <rect height="1" y="4.185000419616699" width="22.6199951171875" x="145.80999755859375"></rect> <g transform="translate(25.6199951171875,0)"><g transform="scale(1)"><path d="M0.89-8.58L2.06-8.58L2.06-1.03L6.42-1.03L6.42 0L0.89 0L0.89-8.58ZM13.22-3.19L13.22-8.58L14.39-8.58L14.39-3.05Q14.25 0.05 10.88 0.14L10.88 0.14Q7.73 0.05 7.59-2.86L7.59-2.86L7.59-8.58L8.77-8.58L8.77-3.19Q8.81-0.84 10.92-0.80L10.92-0.80Q13.22-0.84 13.22-3.19L13.22-3.19ZM22.97-4.27L22.97-4.27Q22.78-7.64 19.97-7.83L19.97-7.83Q17.11-7.69 16.97-4.27L16.97-4.27Q17.11-0.94 19.97-0.80L19.97-0.80Q22.78-0.98 22.97-4.27ZM24.14-4.27L24.14-4.27Q23.86 0 19.97 0.14L19.97 0.14Q16.03 0 15.75-4.27L15.75-4.27Q15.98-8.72 19.97-8.81L19.97-8.81Q23.86-8.67 24.14-4.27ZM32.44-8.58L29.20-3.47L29.20 0L28.03 0L28.03-3.47L24.80-8.58L26.16-8.58L28.59-4.45L31.08-8.58L32.44-8.58ZM39.14 0L38.30-2.48L34.83-2.48L33.94 0L32.77 0L36-8.58L37.31-8.58L40.41 0L39.14 0ZM36.56-7.31L35.20-3.52L37.88-3.52L36.61-7.31L36.56-7.31ZM42.84-8.58L47.16-1.64L47.16-8.58L48.28-8.58L48.28 0L46.97 0L42.61-6.94L42.56-6.94L42.56 0L41.44 0L41.44-8.58L42.84-8.58ZM56.48-3.61L53.86-3.61L53.86-4.59L57.61-4.59L57.61 0L56.86 0L56.58-1.08Q55.59 0.09 53.77 0.14L53.77 0.14Q52.03 0.14 51.09-0.75L51.09-0.75Q49.69-2.06 49.73-4.36L49.73-4.36Q50.06-8.63 53.81-8.81L53.81-8.81Q57-8.63 57.47-6L57.47-6L56.34-6Q55.88-7.78 53.77-7.83L53.77-7.83Q51.09-7.64 50.95-4.31L50.95-4.31Q50.95-0.75 53.81-0.75L53.81-0.75Q54.84-0.75 55.59-1.31L55.59-1.31Q56.53-2.06 56.48-3.61L56.48-3.61ZM70.97-8.58L70.97 0L69.84 0L69.84-5.06Q69.84-5.77 69.84-7.22L69.84-7.22L67.41 0L66.23 0L63.84-7.22L63.80-7.22Q63.80-6.70 63.84-5.67L63.84-5.67Q63.84-5.16 63.84-5.06L63.84-5.06L63.84 0L62.67 0L62.67-8.58L64.36-8.58L66.84-1.31L69.28-8.58L70.97-8.58ZM73.97-1.03L79.13-1.03L79.13 0L72.80 0L72.80-8.58L79.03-8.58L79.03-7.59L73.97-7.59L73.97-4.92L78.66-4.92L78.66-3.89L73.97-3.89L73.97-1.03ZM82.03-8.58L86.34-1.64L86.34-8.58L87.47-8.58L87.47 0L86.16 0L81.80-6.94L81.75-6.94L81.75 0L80.63 0L80.63-8.58L82.03-8.58ZM95.67-3.61L93.05-3.61L93.05-4.59L96.80-4.59L96.80 0L96.05 0L95.77-1.08Q94.78 0.09 92.95 0.14L92.95 0.14Q91.22 0.14 90.28-0.75L90.28-0.75Q88.88-2.06 88.92-4.36L88.92-4.36Q89.25-8.63 93-8.81L93-8.81Q96.19-8.63 96.66-6L96.66-6L95.53-6Q95.06-7.78 92.95-7.83L92.95-7.83Q90.28-7.64 90.14-4.31L90.14-4.31Q90.14-0.75 93-0.75L93-0.75Q94.03-0.75 94.78-1.31L94.78-1.31Q95.72-2.06 95.67-3.61L95.67-3.61ZM103.59-1.08L102.70-1.78L103.31-2.48L104.39-1.64Q105.38-2.63 105.38-4.27L105.38-4.27Q105.19-7.64 102.38-7.83L102.38-7.83Q99.52-7.69 99.38-4.27L99.38-4.27Q99.52-0.94 102.38-0.80L102.38-0.80Q103.08-0.80 103.59-1.08L103.59-1.08ZM105.33-0.94L106.45-0.05L105.89 0.56L104.58-0.33Q103.73 0.14 102.38 0.14L102.38 0.14Q98.44 0 98.16-4.27L98.16-4.27Q98.39-8.72 102.38-8.81L102.38-8.81Q106.27-8.67 106.55-4.27L106.55-4.27Q106.50-2.20 105.33-0.94L105.33-0.94ZM108.09-8.58L109.27-8.58L109.27 0L108.09 0L108.09-8.58ZM112.64-8.58L116.95-1.64L116.95-8.58L118.08-8.58L118.08 0L116.77 0L112.41-6.94L112.36-6.94L112.36 0L111.23 0L111.23-8.58L112.64-8.58Z" transform="translate(-0.890625, 8.8125)"></path></g></g></g></g></g><defs v-gra="od"></defs></svg>